<mxfile host="65bd71144e">
    <diagram id="38-lHB6_NSa1NZ70frqh" name="PÃ¡gina-1">
        <mxGraphModel dx="490" dy="1602" grid="1" gridSize="10" guides="1" tooltips="1" connect="1" arrows="1" fold="1" page="1" pageScale="1" pageWidth="827" pageHeight="1169" math="0" shadow="0">
            <root>
                <mxCell id="0"/>
                <mxCell id="1" parent="0"/>
                <mxCell id="2" value="Zoo" style="html=1;" vertex="1" parent="1">
                    <mxGeometry x="200" y="370" width="110" height="50" as="geometry"/>
                </mxCell>
                <mxCell id="14" value="" style="edgeStyle=none;html=1;endArrow=diamond;endFill=0;entryX=0.5;entryY=0;entryDx=0;entryDy=0;exitX=0.5;exitY=1;exitDx=0;exitDy=0;" edge="1" parent="1" source="13" target="5">
                    <mxGeometry relative="1" as="geometry">
                        <mxPoint x="380" y="200" as="sourcePoint"/>
                    </mxGeometry>
                </mxCell>
                <mxCell id="5" value="Stock" style="html=1;" vertex="1" parent="1">
                    <mxGeometry x="380" y="230" width="110" height="50" as="geometry"/>
                </mxCell>
                <mxCell id="7" style="edgeStyle=none;html=1;entryX=0.5;entryY=0;entryDx=0;entryDy=0;endArrow=diamond;endFill=1;startArrow=none;" edge="1" parent="1" source="3">
                    <mxGeometry relative="1" as="geometry">
                        <mxPoint x="254.5" y="220" as="sourcePoint"/>
                        <mxPoint x="254.5" y="370" as="targetPoint"/>
                    </mxGeometry>
                </mxCell>
                <mxCell id="8" style="edgeStyle=none;html=1;entryX=1;entryY=0.5;entryDx=0;entryDy=0;endArrow=diamond;endFill=1;" edge="1" parent="1" target="2">
                    <mxGeometry relative="1" as="geometry">
                        <mxPoint x="435" y="280" as="sourcePoint"/>
                        <mxPoint x="434.5" y="370" as="targetPoint"/>
                        <Array as="points">
                            <mxPoint x="435" y="395"/>
                        </Array>
                    </mxGeometry>
                </mxCell>
                <mxCell id="11" style="edgeStyle=none;html=1;entryX=0;entryY=0.5;entryDx=0;entryDy=0;endArrow=diamond;endFill=1;" edge="1" parent="1" source="9" target="2">
                    <mxGeometry relative="1" as="geometry">
                        <Array as="points">
                            <mxPoint x="75" y="395"/>
                        </Array>
                    </mxGeometry>
                </mxCell>
                <mxCell id="9" value="Cuidadores" style="html=1;" vertex="1" parent="1">
                    <mxGeometry x="20" y="230" width="110" height="50" as="geometry"/>
                </mxCell>
                <mxCell id="13" value="Comida" style="html=1;" vertex="1" parent="1">
                    <mxGeometry x="380" y="120" width="110" height="50" as="geometry"/>
                </mxCell>
                <mxCell id="17" style="edgeStyle=none;html=1;entryX=1;entryY=0.5;entryDx=0;entryDy=0;endArrow=none;endFill=0;" edge="1" parent="1" source="3" target="16">
                    <mxGeometry relative="1" as="geometry"/>
                </mxCell>
                <mxCell id="3" value="Animales" style="html=1;" vertex="1" parent="1">
                    <mxGeometry x="200" y="230" width="110" height="50" as="geometry"/>
                </mxCell>
                <mxCell id="21" style="edgeStyle=none;html=1;endArrow=none;endFill=0;" edge="1" parent="1" source="16">
                    <mxGeometry relative="1" as="geometry">
                        <mxPoint x="255" y="50" as="targetPoint"/>
                    </mxGeometry>
                </mxCell>
                <mxCell id="22" style="edgeStyle=none;html=1;endArrow=none;endFill=0;entryX=0.5;entryY=1;entryDx=0;entryDy=0;" edge="1" parent="1" source="16" target="26">
                    <mxGeometry relative="1" as="geometry">
                        <mxPoint x="320" y="80" as="targetPoint"/>
                        <Array as="points">
                            <mxPoint x="255" y="80"/>
                            <mxPoint x="414" y="80"/>
                        </Array>
                    </mxGeometry>
                </mxCell>
                <mxCell id="23" style="edgeStyle=none;html=1;endArrow=none;endFill=0;entryX=0.5;entryY=1;entryDx=0;entryDy=0;" edge="1" parent="1" source="16" target="24">
                    <mxGeometry relative="1" as="geometry">
                        <mxPoint x="180" y="40" as="targetPoint"/>
                        <Array as="points">
                            <mxPoint x="255" y="80"/>
                            <mxPoint x="95" y="80"/>
                        </Array>
                    </mxGeometry>
                </mxCell>
                <mxCell id="16" value="" style="triangle;whiteSpace=wrap;html=1;rotation=90;" vertex="1" parent="1">
                    <mxGeometry x="225" y="130" width="60" height="80" as="geometry"/>
                </mxCell>
                <mxCell id="30" style="edgeStyle=none;html=1;entryX=0.5;entryY=0;entryDx=0;entryDy=0;endArrow=diamond;endFill=1;exitX=0.5;exitY=0;exitDx=0;exitDy=0;" edge="1" parent="1" source="24" target="13">
                    <mxGeometry relative="1" as="geometry">
                        <Array as="points">
                            <mxPoint x="95" y="-80"/>
                            <mxPoint x="570" y="-80"/>
                            <mxPoint x="570" y="60"/>
                            <mxPoint x="435" y="60"/>
                        </Array>
                    </mxGeometry>
                </mxCell>
                <mxCell id="24" value="Hervivoros" style="html=1;" vertex="1" parent="1">
                    <mxGeometry x="40" width="110" height="50" as="geometry"/>
                </mxCell>
                <mxCell id="29" style="edgeStyle=none;html=1;entryX=0.5;entryY=0;entryDx=0;entryDy=0;endArrow=diamond;endFill=1;exitX=0.5;exitY=0;exitDx=0;exitDy=0;" edge="1" parent="1" source="25" target="13">
                    <mxGeometry relative="1" as="geometry">
                        <Array as="points">
                            <mxPoint x="255" y="-40"/>
                            <mxPoint x="520" y="-40"/>
                            <mxPoint x="520" y="80"/>
                            <mxPoint x="435" y="80"/>
                        </Array>
                    </mxGeometry>
                </mxCell>
                <mxCell id="25" value="Carnivoros" style="html=1;" vertex="1" parent="1">
                    <mxGeometry x="200" width="110" height="50" as="geometry"/>
                </mxCell>
                <mxCell id="28" style="edgeStyle=none;html=1;entryX=0.5;entryY=0;entryDx=0;entryDy=0;endArrow=diamond;endFill=1;" edge="1" parent="1" source="26" target="13">
                    <mxGeometry relative="1" as="geometry">
                        <Array as="points">
                            <mxPoint x="414" y="100"/>
                            <mxPoint x="435" y="100"/>
                        </Array>
                    </mxGeometry>
                </mxCell>
                <mxCell id="26" value="Hervivoros" style="html=1;" vertex="1" parent="1">
                    <mxGeometry x="359" width="110" height="50" as="geometry"/>
                </mxCell>
                <mxCell id="32" style="edgeStyle=none;html=1;endArrow=diamond;endFill=1;" edge="1" parent="1" source="31" target="9">
                    <mxGeometry relative="1" as="geometry"/>
                </mxCell>
                <mxCell id="31" value="Vacaciones" style="html=1;" vertex="1" parent="1">
                    <mxGeometry x="20" y="130" width="110" height="50" as="geometry"/>
                </mxCell>
            </root>
        </mxGraphModel>
    </diagram>
</mxfile>